<svg height="128" viewBox="0 0 128 128" width="128" xmlns="http://www.w3.org/2000/svg"><path d="m112.437 87.271a21.484 21.484 0 0 0 -37.85-1.748l-3.055-4.887 2.546-1.592a1.751 1.751 0 0 0 .555-2.413l-.96-1.533 29.982-47.962a11.919 11.919 0 0 0 1.521-9.016v-.012a11.988 11.988 0 0 0 -5.286-7.422 4.475 4.475 0 0 0 -6.184 1.414l-29.706 47.52-29.7-47.513a4.477 4.477 0 0 0 -6.2-1.416 11.933 11.933 0 0 0 -3.758 16.447l29.983 47.962-.958 1.533a1.751 1.751 0 0 0 .555 2.413l2.546 1.592-3.055 4.887a21.489 21.489 0 1 0 -.249 22.385l10.836-17.338 10.835 17.335a21.5 21.5 0 0 0 14.544 9.777 21.246 21.246 0 0 0 3.638.313 21.481 21.481 0 0 0 19.42-30.726zm-85.122-61.987a8.432 8.432 0 0 1 2.652-11.63.976.976 0 0 1 1.359.3l30.611 48.968-5.548 8.878zm22.885 80.769a17.98 17.98 0 1 1 1.423-16.3 1.749 1.749 0 0 0 3.1.27l5.64-9.02a1.751 1.751 0 0 0 -.556-2.412l-2.544-1.591 39.414-63.047a.977.977 0 0 1 1.347-.3 8.433 8.433 0 0 1 2.662 11.634zm54.059 4.524a17.976 17.976 0 0 1 -26.459-4.525l-11.736-18.781 2.744-4.389 4.468 7.146a1.749 1.749 0 0 0 3.105-.27 17.982 17.982 0 1 1 27.874 20.819z"/><path d="m96.05 83.533a13.322 13.322 0 1 0 4.067 24.282 13.327 13.327 0 0 0 -4.067-24.282zm2.213 21.313a9.825 9.825 0 1 1 -10.415-16.662 9.742 9.742 0 0 1 5.185-1.5 9.909 9.909 0 0 1 2.229.256 9.828 9.828 0 0 1 3 17.9z"/><path d="m42.008 85.216a13.317 13.317 0 1 0 4.246 18.372 13.329 13.329 0 0 0 -4.246-18.371zm1.278 16.517a9.829 9.829 0 1 1 -10.548-14.791 9.833 9.833 0 0 1 10.548 14.791z"/><circle cx="64" cy="74.708" r="1.75"/></svg>